<?xml version="1.0" standalone="no"?>
<!DOCTYPE svg PUBLIC "-//W3C//DTD SVG 20010904//EN"
 "http://www.w3.org/TR/2001/REC-SVG-20010904/DTD/svg10.dtd">
<svg version="1.0" xmlns="http://www.w3.org/2000/svg"
 width="180.000000pt" height="180.000000pt" viewBox="0 0 180.000000 180.000000"
 preserveAspectRatio="xMidYMid meet">
<metadata>
Created by potrace 1.14, written by Peter Selinger 2001-2017
</metadata>
<g transform="translate(0.000000,180.000000) scale(0.100000,-0.100000)"
fill="#000000" stroke="none">
<path d="M1360 1774 c-62 -24 -90 -42 -127 -82 -24 -25 -43 -50 -44 -56 0 -6
-3 -20 -6 -31 -10 -42 -4 -114 12 -146 30 -58 88 -108 151 -129 81 -28 231
-28 294 1 92 42 143 117 143 210 -1 96 -57 174 -152 210 -56 21 -237 36 -271
23z"/>
<path d="M637 1672 c-54 -19 -127 -78 -156 -126 -25 -40 -42 -115 -42 -183 -1
-151 147 -272 290 -239 124 29 237 174 246 315 3 42 -14 111 -27 111 -5 0 -6
5 -3 10 3 6 1 10 -4 10 -6 0 -11 6 -11 14 0 20 -65 69 -118 88 -61 21 -115 21
-175 0z"/>
<path d="M1217 1224 c-2 -3 -68 -15 -84 -16 -7 -1 -13 -5 -13 -10 0 -4 -3 -7
-7 -6 -10 2 -92 -40 -109 -56 -6 -6 -22 -18 -34 -26 -13 -8 -32 -23 -42 -32
-10 -10 -20 -18 -21 -18 -2 0 -54 -49 -114 -109 -122 -120 -150 -166 -159
-257 -12 -120 -7 -271 8 -280 5 -3 6 -10 3 -15 -4 -5 -1 -9 6 -9 7 0 9 -3 6
-6 -3 -4 -1 -16 5 -28 7 -11 11 -24 10 -28 -1 -5 3 -8 9 -8 5 0 7 -4 4 -10 -3
-5 -2 -10 2 -10 5 0 17 -17 28 -37 11 -21 28 -47 37 -57 10 -10 15 -23 12 -28
-3 -5 -1 -7 3 -6 5 2 27 -15 49 -37 22 -22 44 -42 49 -44 6 -3 35 -16 65 -29
110 -51 245 -59 365 -24 42 13 129 55 137 67 4 6 8 6 8 1 0 -5 8 1 19 12 10
12 21 22 25 22 4 0 32 25 63 55 31 30 53 55 50 55 -4 0 6 14 23 31 16 18 30
38 30 45 0 8 5 14 11 14 14 0 74 134 93 207 26 99 16 217 -31 358 -44 130 -72
195 -85 195 -4 0 -8 7 -8 15 0 8 -3 15 -7 15 -5 0 -23 13 -42 29 -52 45 -129
64 -254 65 -60 1 -109 1 -110 0z"/>
<path d="M295 963 c-47 -5 -105 -23 -105 -33 0 -6 -6 -10 -13 -10 -27 0 -96
-72 -123 -127 -25 -49 -28 -67 -27 -152 0 -149 37 -223 137 -280 45 -26 64
-31 120 -31 66 0 166 31 166 51 0 5 5 9 11 9 16 0 79 71 73 82 -3 4 -2 8 3 8
7 0 35 52 38 70 1 3 7 30 13 60 24 112 -1 208 -71 273 -61 56 -145 86 -222 80z"/>
</g>
</svg>
